<mxfile host="app.diagrams.net" modified="2023-05-18T12:22:51.656Z" agent="Mozilla/5.0 (Windows NT 10.0; Win64; x64; rv:109.0) Gecko/20100101 Firefox/115.0" etag="nptYmYKg_jIHYOJWjcXf" version="21.2.3" type="device">
  <diagram name="Page-1" id="7e0a89b8-554c-2b80-1dc8-d5c74ca68de4">
    <mxGraphModel dx="1853" dy="833" grid="0" gridSize="10" guides="1" tooltips="1" connect="1" arrows="1" fold="1" page="1" pageScale="1" pageWidth="1100" pageHeight="850" background="none" math="0" shadow="0">
      <root>
        <mxCell id="0" />
        <mxCell id="1" parent="0" />
        <mxCell id="NPAhg3nykdGBVtbv5uxs-1" value="Microcontroler" style="swimlane;fontStyle=0;childLayout=stackLayout;horizontal=1;startSize=30;horizontalStack=0;resizeParent=1;resizeParentMax=0;resizeLast=0;collapsible=1;marginBottom=0;whiteSpace=wrap;html=1;" vertex="1" parent="1">
          <mxGeometry x="840" y="230" width="140" height="420" as="geometry" />
        </mxCell>
        <mxCell id="NPAhg3nykdGBVtbv5uxs-2" value="GND" style="text;strokeColor=none;fillColor=none;align=left;verticalAlign=middle;spacingLeft=4;spacingRight=4;overflow=hidden;points=[[0,0.5],[1,0.5]];portConstraint=eastwest;rotatable=0;whiteSpace=wrap;html=1;" vertex="1" parent="NPAhg3nykdGBVtbv5uxs-1">
          <mxGeometry y="30" width="140" height="30" as="geometry" />
        </mxCell>
        <mxCell id="NPAhg3nykdGBVtbv5uxs-3" value="+5" style="text;strokeColor=none;fillColor=none;align=left;verticalAlign=middle;spacingLeft=4;spacingRight=4;overflow=hidden;points=[[0,0.5],[1,0.5]];portConstraint=eastwest;rotatable=0;whiteSpace=wrap;html=1;" vertex="1" parent="NPAhg3nykdGBVtbv5uxs-1">
          <mxGeometry y="60" width="140" height="30" as="geometry" />
        </mxCell>
        <mxCell id="NPAhg3nykdGBVtbv5uxs-4" value="+3" style="text;strokeColor=none;fillColor=none;align=left;verticalAlign=middle;spacingLeft=4;spacingRight=4;overflow=hidden;points=[[0,0.5],[1,0.5]];portConstraint=eastwest;rotatable=0;whiteSpace=wrap;html=1;" vertex="1" parent="NPAhg3nykdGBVtbv5uxs-1">
          <mxGeometry y="90" width="140" height="30" as="geometry" />
        </mxCell>
        <mxCell id="NPAhg3nykdGBVtbv5uxs-10" value="PD0" style="text;strokeColor=none;fillColor=none;align=left;verticalAlign=middle;spacingLeft=4;spacingRight=4;overflow=hidden;points=[[0,0.5],[1,0.5]];portConstraint=eastwest;rotatable=0;whiteSpace=wrap;html=1;" vertex="1" parent="NPAhg3nykdGBVtbv5uxs-1">
          <mxGeometry y="120" width="140" height="30" as="geometry" />
        </mxCell>
        <mxCell id="NPAhg3nykdGBVtbv5uxs-11" value="PD1" style="text;strokeColor=none;fillColor=none;align=left;verticalAlign=middle;spacingLeft=4;spacingRight=4;overflow=hidden;points=[[0,0.5],[1,0.5]];portConstraint=eastwest;rotatable=0;whiteSpace=wrap;html=1;" vertex="1" parent="NPAhg3nykdGBVtbv5uxs-1">
          <mxGeometry y="150" width="140" height="30" as="geometry" />
        </mxCell>
        <mxCell id="NPAhg3nykdGBVtbv5uxs-12" value="PD2" style="text;strokeColor=none;fillColor=none;align=left;verticalAlign=middle;spacingLeft=4;spacingRight=4;overflow=hidden;points=[[0,0.5],[1,0.5]];portConstraint=eastwest;rotatable=0;whiteSpace=wrap;html=1;" vertex="1" parent="NPAhg3nykdGBVtbv5uxs-1">
          <mxGeometry y="180" width="140" height="30" as="geometry" />
        </mxCell>
        <mxCell id="NPAhg3nykdGBVtbv5uxs-13" value="PD3" style="text;strokeColor=none;fillColor=none;align=left;verticalAlign=middle;spacingLeft=4;spacingRight=4;overflow=hidden;points=[[0,0.5],[1,0.5]];portConstraint=eastwest;rotatable=0;whiteSpace=wrap;html=1;" vertex="1" parent="NPAhg3nykdGBVtbv5uxs-1">
          <mxGeometry y="210" width="140" height="30" as="geometry" />
        </mxCell>
        <mxCell id="NPAhg3nykdGBVtbv5uxs-14" value="PD4" style="text;strokeColor=none;fillColor=none;align=left;verticalAlign=middle;spacingLeft=4;spacingRight=4;overflow=hidden;points=[[0,0.5],[1,0.5]];portConstraint=eastwest;rotatable=0;whiteSpace=wrap;html=1;" vertex="1" parent="NPAhg3nykdGBVtbv5uxs-1">
          <mxGeometry y="240" width="140" height="30" as="geometry" />
        </mxCell>
        <mxCell id="NPAhg3nykdGBVtbv5uxs-15" value="PD5" style="text;strokeColor=none;fillColor=none;align=left;verticalAlign=middle;spacingLeft=4;spacingRight=4;overflow=hidden;points=[[0,0.5],[1,0.5]];portConstraint=eastwest;rotatable=0;whiteSpace=wrap;html=1;" vertex="1" parent="NPAhg3nykdGBVtbv5uxs-1">
          <mxGeometry y="270" width="140" height="30" as="geometry" />
        </mxCell>
        <mxCell id="NPAhg3nykdGBVtbv5uxs-16" value="PD6" style="text;strokeColor=none;fillColor=none;align=left;verticalAlign=middle;spacingLeft=4;spacingRight=4;overflow=hidden;points=[[0,0.5],[1,0.5]];portConstraint=eastwest;rotatable=0;whiteSpace=wrap;html=1;" vertex="1" parent="NPAhg3nykdGBVtbv5uxs-1">
          <mxGeometry y="300" width="140" height="30" as="geometry" />
        </mxCell>
        <mxCell id="NPAhg3nykdGBVtbv5uxs-17" value="PD7" style="text;strokeColor=none;fillColor=none;align=left;verticalAlign=middle;spacingLeft=4;spacingRight=4;overflow=hidden;points=[[0,0.5],[1,0.5]];portConstraint=eastwest;rotatable=0;whiteSpace=wrap;html=1;" vertex="1" parent="NPAhg3nykdGBVtbv5uxs-1">
          <mxGeometry y="330" width="140" height="30" as="geometry" />
        </mxCell>
        <mxCell id="NPAhg3nykdGBVtbv5uxs-18" value="PD12" style="text;strokeColor=none;fillColor=none;align=left;verticalAlign=middle;spacingLeft=4;spacingRight=4;overflow=hidden;points=[[0,0.5],[1,0.5]];portConstraint=eastwest;rotatable=0;whiteSpace=wrap;html=1;" vertex="1" parent="NPAhg3nykdGBVtbv5uxs-1">
          <mxGeometry y="360" width="140" height="30" as="geometry" />
        </mxCell>
        <mxCell id="NPAhg3nykdGBVtbv5uxs-20" value="PD14" style="text;strokeColor=none;fillColor=none;align=left;verticalAlign=middle;spacingLeft=4;spacingRight=4;overflow=hidden;points=[[0,0.5],[1,0.5]];portConstraint=eastwest;rotatable=0;whiteSpace=wrap;html=1;" vertex="1" parent="NPAhg3nykdGBVtbv5uxs-1">
          <mxGeometry y="390" width="140" height="30" as="geometry" />
        </mxCell>
        <mxCell id="NPAhg3nykdGBVtbv5uxs-23" value="Display" style="swimlane;fontStyle=0;childLayout=stackLayout;horizontal=1;startSize=30;horizontalStack=0;resizeParent=1;resizeParentMax=0;resizeLast=0;collapsible=1;marginBottom=0;whiteSpace=wrap;html=1;" vertex="1" parent="1">
          <mxGeometry x="310" y="140" width="140" height="510" as="geometry" />
        </mxCell>
        <mxCell id="NPAhg3nykdGBVtbv5uxs-24" value="VSS" style="text;strokeColor=none;fillColor=none;align=left;verticalAlign=middle;spacingLeft=4;spacingRight=4;overflow=hidden;points=[[0,0.5],[1,0.5]];portConstraint=eastwest;rotatable=0;whiteSpace=wrap;html=1;" vertex="1" parent="NPAhg3nykdGBVtbv5uxs-23">
          <mxGeometry y="30" width="140" height="30" as="geometry" />
        </mxCell>
        <mxCell id="NPAhg3nykdGBVtbv5uxs-25" value="VCC" style="text;strokeColor=none;fillColor=none;align=left;verticalAlign=middle;spacingLeft=4;spacingRight=4;overflow=hidden;points=[[0,0.5],[1,0.5]];portConstraint=eastwest;rotatable=0;whiteSpace=wrap;html=1;" vertex="1" parent="NPAhg3nykdGBVtbv5uxs-23">
          <mxGeometry y="60" width="140" height="30" as="geometry" />
        </mxCell>
        <mxCell id="NPAhg3nykdGBVtbv5uxs-26" value="VEE" style="text;strokeColor=none;fillColor=none;align=left;verticalAlign=middle;spacingLeft=4;spacingRight=4;overflow=hidden;points=[[0,0.5],[1,0.5]];portConstraint=eastwest;rotatable=0;whiteSpace=wrap;html=1;" vertex="1" parent="NPAhg3nykdGBVtbv5uxs-23">
          <mxGeometry y="90" width="140" height="30" as="geometry" />
        </mxCell>
        <mxCell id="NPAhg3nykdGBVtbv5uxs-27" value="RS" style="text;strokeColor=none;fillColor=none;align=left;verticalAlign=middle;spacingLeft=4;spacingRight=4;overflow=hidden;points=[[0,0.5],[1,0.5]];portConstraint=eastwest;rotatable=0;whiteSpace=wrap;html=1;" vertex="1" parent="NPAhg3nykdGBVtbv5uxs-23">
          <mxGeometry y="120" width="140" height="30" as="geometry" />
        </mxCell>
        <mxCell id="NPAhg3nykdGBVtbv5uxs-28" value="R/W" style="text;strokeColor=none;fillColor=none;align=left;verticalAlign=middle;spacingLeft=4;spacingRight=4;overflow=hidden;points=[[0,0.5],[1,0.5]];portConstraint=eastwest;rotatable=0;whiteSpace=wrap;html=1;" vertex="1" parent="NPAhg3nykdGBVtbv5uxs-23">
          <mxGeometry y="150" width="140" height="30" as="geometry" />
        </mxCell>
        <mxCell id="NPAhg3nykdGBVtbv5uxs-30" value="E" style="text;strokeColor=none;fillColor=none;align=left;verticalAlign=middle;spacingLeft=4;spacingRight=4;overflow=hidden;points=[[0,0.5],[1,0.5]];portConstraint=eastwest;rotatable=0;whiteSpace=wrap;html=1;" vertex="1" parent="NPAhg3nykdGBVtbv5uxs-23">
          <mxGeometry y="180" width="140" height="30" as="geometry" />
        </mxCell>
        <mxCell id="NPAhg3nykdGBVtbv5uxs-31" value="D0" style="text;strokeColor=none;fillColor=none;align=left;verticalAlign=middle;spacingLeft=4;spacingRight=4;overflow=hidden;points=[[0,0.5],[1,0.5]];portConstraint=eastwest;rotatable=0;whiteSpace=wrap;html=1;" vertex="1" parent="NPAhg3nykdGBVtbv5uxs-23">
          <mxGeometry y="210" width="140" height="30" as="geometry" />
        </mxCell>
        <mxCell id="NPAhg3nykdGBVtbv5uxs-32" value="D1" style="text;strokeColor=none;fillColor=none;align=left;verticalAlign=middle;spacingLeft=4;spacingRight=4;overflow=hidden;points=[[0,0.5],[1,0.5]];portConstraint=eastwest;rotatable=0;whiteSpace=wrap;html=1;" vertex="1" parent="NPAhg3nykdGBVtbv5uxs-23">
          <mxGeometry y="240" width="140" height="30" as="geometry" />
        </mxCell>
        <mxCell id="NPAhg3nykdGBVtbv5uxs-33" value="D2" style="text;strokeColor=none;fillColor=none;align=left;verticalAlign=middle;spacingLeft=4;spacingRight=4;overflow=hidden;points=[[0,0.5],[1,0.5]];portConstraint=eastwest;rotatable=0;whiteSpace=wrap;html=1;" vertex="1" parent="NPAhg3nykdGBVtbv5uxs-23">
          <mxGeometry y="270" width="140" height="30" as="geometry" />
        </mxCell>
        <mxCell id="NPAhg3nykdGBVtbv5uxs-34" value="D3" style="text;strokeColor=none;fillColor=none;align=left;verticalAlign=middle;spacingLeft=4;spacingRight=4;overflow=hidden;points=[[0,0.5],[1,0.5]];portConstraint=eastwest;rotatable=0;whiteSpace=wrap;html=1;" vertex="1" parent="NPAhg3nykdGBVtbv5uxs-23">
          <mxGeometry y="300" width="140" height="30" as="geometry" />
        </mxCell>
        <mxCell id="NPAhg3nykdGBVtbv5uxs-35" value="D4" style="text;strokeColor=none;fillColor=none;align=left;verticalAlign=middle;spacingLeft=4;spacingRight=4;overflow=hidden;points=[[0,0.5],[1,0.5]];portConstraint=eastwest;rotatable=0;whiteSpace=wrap;html=1;" vertex="1" parent="NPAhg3nykdGBVtbv5uxs-23">
          <mxGeometry y="330" width="140" height="30" as="geometry" />
        </mxCell>
        <mxCell id="NPAhg3nykdGBVtbv5uxs-36" value="D5" style="text;strokeColor=none;fillColor=none;align=left;verticalAlign=middle;spacingLeft=4;spacingRight=4;overflow=hidden;points=[[0,0.5],[1,0.5]];portConstraint=eastwest;rotatable=0;whiteSpace=wrap;html=1;" vertex="1" parent="NPAhg3nykdGBVtbv5uxs-23">
          <mxGeometry y="360" width="140" height="30" as="geometry" />
        </mxCell>
        <mxCell id="NPAhg3nykdGBVtbv5uxs-37" value="D6" style="text;strokeColor=none;fillColor=none;align=left;verticalAlign=middle;spacingLeft=4;spacingRight=4;overflow=hidden;points=[[0,0.5],[1,0.5]];portConstraint=eastwest;rotatable=0;whiteSpace=wrap;html=1;" vertex="1" parent="NPAhg3nykdGBVtbv5uxs-23">
          <mxGeometry y="390" width="140" height="30" as="geometry" />
        </mxCell>
        <mxCell id="NPAhg3nykdGBVtbv5uxs-38" value="D7" style="text;strokeColor=none;fillColor=none;align=left;verticalAlign=middle;spacingLeft=4;spacingRight=4;overflow=hidden;points=[[0,0.5],[1,0.5]];portConstraint=eastwest;rotatable=0;whiteSpace=wrap;html=1;" vertex="1" parent="NPAhg3nykdGBVtbv5uxs-23">
          <mxGeometry y="420" width="140" height="30" as="geometry" />
        </mxCell>
        <mxCell id="NPAhg3nykdGBVtbv5uxs-39" value="A" style="text;strokeColor=none;fillColor=none;align=left;verticalAlign=middle;spacingLeft=4;spacingRight=4;overflow=hidden;points=[[0,0.5],[1,0.5]];portConstraint=eastwest;rotatable=0;whiteSpace=wrap;html=1;" vertex="1" parent="NPAhg3nykdGBVtbv5uxs-23">
          <mxGeometry y="450" width="140" height="30" as="geometry" />
        </mxCell>
        <mxCell id="NPAhg3nykdGBVtbv5uxs-40" value="K" style="text;strokeColor=none;fillColor=none;align=left;verticalAlign=middle;spacingLeft=4;spacingRight=4;overflow=hidden;points=[[0,0.5],[1,0.5]];portConstraint=eastwest;rotatable=0;whiteSpace=wrap;html=1;" vertex="1" parent="NPAhg3nykdGBVtbv5uxs-23">
          <mxGeometry y="480" width="140" height="30" as="geometry" />
        </mxCell>
        <mxCell id="NPAhg3nykdGBVtbv5uxs-41" value="" style="pointerEvents=1;verticalLabelPosition=bottom;shadow=0;dashed=0;align=center;html=1;verticalAlign=top;shape=mxgraph.electrical.resistors.potentiometer_1;" vertex="1" parent="1">
          <mxGeometry x="580" y="70" width="100" height="40" as="geometry" />
        </mxCell>
        <mxCell id="NPAhg3nykdGBVtbv5uxs-42" value="" style="endArrow=none;html=1;rounded=0;exitX=1;exitY=0.5;exitDx=0;exitDy=0;entryX=0;entryY=0.5;entryDx=0;entryDy=0;" edge="1" parent="1" source="NPAhg3nykdGBVtbv5uxs-31" target="NPAhg3nykdGBVtbv5uxs-10">
          <mxGeometry width="50" height="50" relative="1" as="geometry">
            <mxPoint x="660" y="310" as="sourcePoint" />
            <mxPoint x="710" y="260" as="targetPoint" />
          </mxGeometry>
        </mxCell>
        <mxCell id="NPAhg3nykdGBVtbv5uxs-43" value="" style="endArrow=none;html=1;rounded=0;exitX=1;exitY=0.5;exitDx=0;exitDy=0;entryX=0;entryY=0.5;entryDx=0;entryDy=0;" edge="1" parent="1" source="NPAhg3nykdGBVtbv5uxs-32" target="NPAhg3nykdGBVtbv5uxs-11">
          <mxGeometry width="50" height="50" relative="1" as="geometry">
            <mxPoint x="660" y="410" as="sourcePoint" />
            <mxPoint x="710" y="360" as="targetPoint" />
          </mxGeometry>
        </mxCell>
        <mxCell id="NPAhg3nykdGBVtbv5uxs-44" value="" style="endArrow=none;html=1;rounded=0;exitX=1;exitY=0.5;exitDx=0;exitDy=0;entryX=0;entryY=0.5;entryDx=0;entryDy=0;" edge="1" parent="1" source="NPAhg3nykdGBVtbv5uxs-33" target="NPAhg3nykdGBVtbv5uxs-12">
          <mxGeometry width="50" height="50" relative="1" as="geometry">
            <mxPoint x="660" y="410" as="sourcePoint" />
            <mxPoint x="710" y="360" as="targetPoint" />
          </mxGeometry>
        </mxCell>
        <mxCell id="NPAhg3nykdGBVtbv5uxs-45" value="" style="endArrow=none;html=1;rounded=0;exitX=1;exitY=0.5;exitDx=0;exitDy=0;entryX=0;entryY=0.5;entryDx=0;entryDy=0;" edge="1" parent="1" source="NPAhg3nykdGBVtbv5uxs-34" target="NPAhg3nykdGBVtbv5uxs-13">
          <mxGeometry width="50" height="50" relative="1" as="geometry">
            <mxPoint x="660" y="410" as="sourcePoint" />
            <mxPoint x="710" y="360" as="targetPoint" />
          </mxGeometry>
        </mxCell>
        <mxCell id="NPAhg3nykdGBVtbv5uxs-46" value="" style="endArrow=none;html=1;rounded=0;exitX=1;exitY=0.5;exitDx=0;exitDy=0;" edge="1" parent="1" source="NPAhg3nykdGBVtbv5uxs-35" target="NPAhg3nykdGBVtbv5uxs-14">
          <mxGeometry width="50" height="50" relative="1" as="geometry">
            <mxPoint x="660" y="410" as="sourcePoint" />
            <mxPoint x="710" y="360" as="targetPoint" />
          </mxGeometry>
        </mxCell>
        <mxCell id="NPAhg3nykdGBVtbv5uxs-47" value="" style="endArrow=none;html=1;rounded=0;entryX=-0.04;entryY=0.495;entryDx=0;entryDy=0;entryPerimeter=0;exitX=1;exitY=0.5;exitDx=0;exitDy=0;" edge="1" parent="1" source="NPAhg3nykdGBVtbv5uxs-36" target="NPAhg3nykdGBVtbv5uxs-15">
          <mxGeometry width="50" height="50" relative="1" as="geometry">
            <mxPoint x="440" y="560" as="sourcePoint" />
            <mxPoint x="490" y="510" as="targetPoint" />
          </mxGeometry>
        </mxCell>
        <mxCell id="NPAhg3nykdGBVtbv5uxs-48" value="" style="endArrow=none;html=1;rounded=0;exitX=1;exitY=0.5;exitDx=0;exitDy=0;entryX=0;entryY=0.5;entryDx=0;entryDy=0;" edge="1" parent="1" source="NPAhg3nykdGBVtbv5uxs-37" target="NPAhg3nykdGBVtbv5uxs-16">
          <mxGeometry width="50" height="50" relative="1" as="geometry">
            <mxPoint x="660" y="410" as="sourcePoint" />
            <mxPoint x="710" y="360" as="targetPoint" />
          </mxGeometry>
        </mxCell>
        <mxCell id="NPAhg3nykdGBVtbv5uxs-49" value="" style="endArrow=none;html=1;rounded=0;exitX=1;exitY=0.5;exitDx=0;exitDy=0;entryX=0;entryY=0.5;entryDx=0;entryDy=0;" edge="1" parent="1" source="NPAhg3nykdGBVtbv5uxs-38" target="NPAhg3nykdGBVtbv5uxs-17">
          <mxGeometry width="50" height="50" relative="1" as="geometry">
            <mxPoint x="660" y="410" as="sourcePoint" />
            <mxPoint x="710" y="360" as="targetPoint" />
          </mxGeometry>
        </mxCell>
        <mxCell id="NPAhg3nykdGBVtbv5uxs-51" value="" style="endArrow=none;html=1;rounded=0;exitX=1;exitY=0.5;exitDx=0;exitDy=0;entryX=0;entryY=0.5;entryDx=0;entryDy=0;" edge="1" parent="1" source="NPAhg3nykdGBVtbv5uxs-25" target="NPAhg3nykdGBVtbv5uxs-3">
          <mxGeometry width="50" height="50" relative="1" as="geometry">
            <mxPoint x="660" y="410" as="sourcePoint" />
            <mxPoint x="710" y="360" as="targetPoint" />
            <Array as="points">
              <mxPoint x="560" y="215" />
              <mxPoint x="560" y="305" />
            </Array>
          </mxGeometry>
        </mxCell>
        <mxCell id="NPAhg3nykdGBVtbv5uxs-52" value="" style="endArrow=none;html=1;rounded=0;exitX=1;exitY=0.5;exitDx=0;exitDy=0;entryX=0.5;entryY=1;entryDx=0;entryDy=0;entryPerimeter=0;" edge="1" parent="1" source="NPAhg3nykdGBVtbv5uxs-26" target="NPAhg3nykdGBVtbv5uxs-41">
          <mxGeometry width="50" height="50" relative="1" as="geometry">
            <mxPoint x="660" y="410" as="sourcePoint" />
            <mxPoint x="710" y="360" as="targetPoint" />
            <Array as="points">
              <mxPoint x="630" y="245" />
            </Array>
          </mxGeometry>
        </mxCell>
        <mxCell id="NPAhg3nykdGBVtbv5uxs-53" value="" style="endArrow=none;html=1;rounded=0;entryX=0;entryY=0.5;entryDx=0;entryDy=0;exitX=1;exitY=0.25;exitDx=0;exitDy=0;exitPerimeter=0;" edge="1" parent="1" source="NPAhg3nykdGBVtbv5uxs-41" target="NPAhg3nykdGBVtbv5uxs-4">
          <mxGeometry width="50" height="50" relative="1" as="geometry">
            <mxPoint x="660" y="410" as="sourcePoint" />
            <mxPoint x="710" y="360" as="targetPoint" />
            <Array as="points">
              <mxPoint x="680" y="335" />
            </Array>
          </mxGeometry>
        </mxCell>
        <mxCell id="NPAhg3nykdGBVtbv5uxs-54" value="" style="endArrow=none;html=1;rounded=0;entryX=0;entryY=0.25;entryDx=0;entryDy=0;entryPerimeter=0;" edge="1" parent="1" source="NPAhg3nykdGBVtbv5uxs-55" target="NPAhg3nykdGBVtbv5uxs-41">
          <mxGeometry width="50" height="50" relative="1" as="geometry">
            <mxPoint x="580" y="190" as="sourcePoint" />
            <mxPoint x="710" y="360" as="targetPoint" />
          </mxGeometry>
        </mxCell>
        <mxCell id="NPAhg3nykdGBVtbv5uxs-58" value="" style="endArrow=none;html=1;rounded=0;exitX=1;exitY=0.5;exitDx=0;exitDy=0;entryX=0;entryY=0.5;entryDx=0;entryDy=0;" edge="1" parent="1" source="NPAhg3nykdGBVtbv5uxs-24" target="NPAhg3nykdGBVtbv5uxs-55">
          <mxGeometry width="50" height="50" relative="1" as="geometry">
            <mxPoint x="450" y="185" as="sourcePoint" />
            <mxPoint x="840" y="275" as="targetPoint" />
            <Array as="points" />
          </mxGeometry>
        </mxCell>
        <mxCell id="NPAhg3nykdGBVtbv5uxs-55" value="" style="ellipse;whiteSpace=wrap;html=1;aspect=fixed;fillColor=#050505;" vertex="1" parent="1">
          <mxGeometry x="577" y="182.5" width="5" height="5" as="geometry" />
        </mxCell>
        <mxCell id="NPAhg3nykdGBVtbv5uxs-59" value="" style="endArrow=none;html=1;rounded=0;exitX=1;exitY=0.5;exitDx=0;exitDy=0;entryX=0;entryY=0.5;entryDx=0;entryDy=0;" edge="1" parent="1" source="NPAhg3nykdGBVtbv5uxs-27" target="NPAhg3nykdGBVtbv5uxs-18">
          <mxGeometry width="50" height="50" relative="1" as="geometry">
            <mxPoint x="547" y="408" as="sourcePoint" />
            <mxPoint x="597" y="358" as="targetPoint" />
            <Array as="points">
              <mxPoint x="530" y="275" />
              <mxPoint x="530" y="605" />
            </Array>
          </mxGeometry>
        </mxCell>
        <mxCell id="NPAhg3nykdGBVtbv5uxs-64" value="" style="endArrow=none;html=1;rounded=0;entryX=0.5;entryY=1;entryDx=0;entryDy=0;exitX=0.5;exitY=0;exitDx=0;exitDy=0;" edge="1" parent="1" source="NPAhg3nykdGBVtbv5uxs-62" target="NPAhg3nykdGBVtbv5uxs-55">
          <mxGeometry width="50" height="50" relative="1" as="geometry">
            <mxPoint x="619" y="277" as="sourcePoint" />
            <mxPoint x="669" y="227" as="targetPoint" />
            <Array as="points" />
          </mxGeometry>
        </mxCell>
        <mxCell id="NPAhg3nykdGBVtbv5uxs-66" value="" style="endArrow=none;html=1;rounded=0;entryX=0.5;entryY=1;entryDx=0;entryDy=0;exitX=-0.004;exitY=0.594;exitDx=0;exitDy=0;exitPerimeter=0;" edge="1" parent="1" source="NPAhg3nykdGBVtbv5uxs-2" target="NPAhg3nykdGBVtbv5uxs-62">
          <mxGeometry width="50" height="50" relative="1" as="geometry">
            <mxPoint x="839" y="278" as="sourcePoint" />
            <mxPoint x="580" y="188" as="targetPoint" />
            <Array as="points">
              <mxPoint x="580" y="276" />
            </Array>
          </mxGeometry>
        </mxCell>
        <mxCell id="NPAhg3nykdGBVtbv5uxs-62" value="" style="ellipse;whiteSpace=wrap;html=1;aspect=fixed;fillColor=#050505;" vertex="1" parent="1">
          <mxGeometry x="577" y="272.5" width="5" height="5" as="geometry" />
        </mxCell>
        <mxCell id="NPAhg3nykdGBVtbv5uxs-69" value="" style="endArrow=none;html=1;rounded=0;exitX=1;exitY=0.5;exitDx=0;exitDy=0;entryX=-0.016;entryY=0.474;entryDx=0;entryDy=0;entryPerimeter=0;" edge="1" parent="1" source="NPAhg3nykdGBVtbv5uxs-30" target="NPAhg3nykdGBVtbv5uxs-20">
          <mxGeometry width="50" height="50" relative="1" as="geometry">
            <mxPoint x="475" y="392" as="sourcePoint" />
            <mxPoint x="525" y="342" as="targetPoint" />
            <Array as="points">
              <mxPoint x="510" y="335" />
              <mxPoint x="510" y="634" />
            </Array>
          </mxGeometry>
        </mxCell>
        <mxCell id="NPAhg3nykdGBVtbv5uxs-70" value="" style="endArrow=none;html=1;rounded=0;exitX=1;exitY=0.5;exitDx=0;exitDy=0;" edge="1" parent="1" source="NPAhg3nykdGBVtbv5uxs-71">
          <mxGeometry width="50" height="50" relative="1" as="geometry">
            <mxPoint x="480" y="430" as="sourcePoint" />
            <mxPoint x="580" y="320" as="targetPoint" />
            <Array as="points" />
          </mxGeometry>
        </mxCell>
        <mxCell id="NPAhg3nykdGBVtbv5uxs-72" value="" style="endArrow=none;html=1;rounded=0;exitX=1;exitY=0.5;exitDx=0;exitDy=0;" edge="1" parent="1" source="NPAhg3nykdGBVtbv5uxs-28" target="NPAhg3nykdGBVtbv5uxs-71">
          <mxGeometry width="50" height="50" relative="1" as="geometry">
            <mxPoint x="450" y="305" as="sourcePoint" />
            <mxPoint x="580" y="270" as="targetPoint" />
            <Array as="points">
              <mxPoint x="492" y="305" />
              <mxPoint x="492" y="320" />
            </Array>
          </mxGeometry>
        </mxCell>
        <mxCell id="NPAhg3nykdGBVtbv5uxs-73" value="" style="endArrow=none;html=1;rounded=0;exitX=1;exitY=0.5;exitDx=0;exitDy=0;" edge="1" parent="1" source="NPAhg3nykdGBVtbv5uxs-40" target="NPAhg3nykdGBVtbv5uxs-71">
          <mxGeometry width="50" height="50" relative="1" as="geometry">
            <mxPoint x="450" y="635" as="sourcePoint" />
            <mxPoint x="580" y="320" as="targetPoint" />
            <Array as="points">
              <mxPoint x="490" y="635" />
              <mxPoint x="490" y="660" />
              <mxPoint x="580" y="660" />
            </Array>
          </mxGeometry>
        </mxCell>
        <mxCell id="NPAhg3nykdGBVtbv5uxs-71" value="" style="ellipse;whiteSpace=wrap;html=1;aspect=fixed;fillColor=#050505;" vertex="1" parent="1">
          <mxGeometry x="577" y="317" width="5" height="5" as="geometry" />
        </mxCell>
        <mxCell id="NPAhg3nykdGBVtbv5uxs-74" value="" style="endArrow=none;html=1;rounded=0;entryX=0.5;entryY=0;entryDx=0;entryDy=0;exitX=0.5;exitY=1;exitDx=0;exitDy=0;" edge="1" parent="1" source="NPAhg3nykdGBVtbv5uxs-62" target="NPAhg3nykdGBVtbv5uxs-71">
          <mxGeometry width="50" height="50" relative="1" as="geometry">
            <mxPoint x="526" y="381" as="sourcePoint" />
            <mxPoint x="576" y="331" as="targetPoint" />
          </mxGeometry>
        </mxCell>
        <mxCell id="NPAhg3nykdGBVtbv5uxs-75" value="" style="endArrow=none;html=1;rounded=0;exitX=1;exitY=0.5;exitDx=0;exitDy=0;" edge="1" parent="1" source="NPAhg3nykdGBVtbv5uxs-76">
          <mxGeometry width="50" height="50" relative="1" as="geometry">
            <mxPoint x="540" y="460" as="sourcePoint" />
            <mxPoint x="630" y="240" as="targetPoint" />
            <Array as="points" />
          </mxGeometry>
        </mxCell>
        <mxCell id="NPAhg3nykdGBVtbv5uxs-77" value="" style="endArrow=none;html=1;rounded=0;exitX=1;exitY=0.5;exitDx=0;exitDy=0;" edge="1" parent="1" source="NPAhg3nykdGBVtbv5uxs-39" target="NPAhg3nykdGBVtbv5uxs-76">
          <mxGeometry width="50" height="50" relative="1" as="geometry">
            <mxPoint x="450" y="605" as="sourcePoint" />
            <mxPoint x="630" y="240" as="targetPoint" />
            <Array as="points">
              <mxPoint x="480" y="605" />
              <mxPoint x="480" y="690" />
              <mxPoint x="630" y="690" />
            </Array>
          </mxGeometry>
        </mxCell>
        <mxCell id="NPAhg3nykdGBVtbv5uxs-76" value="" style="ellipse;whiteSpace=wrap;html=1;aspect=fixed;fillColor=#050505;" vertex="1" parent="1">
          <mxGeometry x="627.5" y="242.5" width="5" height="5" as="geometry" />
        </mxCell>
        <mxCell id="NPAhg3nykdGBVtbv5uxs-78" value="Text" style="text;html=1;strokeColor=none;fillColor=none;align=center;verticalAlign=middle;whiteSpace=wrap;rounded=0;" vertex="1" parent="1">
          <mxGeometry x="290" y="230" width="60" height="30" as="geometry" />
        </mxCell>
        <mxCell id="NPAhg3nykdGBVtbv5uxs-79" value="Auf 90 Ohm eingestellt" style="text;html=1;strokeColor=none;fillColor=none;align=center;verticalAlign=middle;whiteSpace=wrap;rounded=0;" vertex="1" parent="1">
          <mxGeometry x="561" y="40" width="138" height="30" as="geometry" />
        </mxCell>
        <mxCell id="NPAhg3nykdGBVtbv5uxs-80" value="10K Ohm" style="text;html=1;strokeColor=none;fillColor=none;align=center;verticalAlign=middle;whiteSpace=wrap;rounded=0;" vertex="1" parent="1">
          <mxGeometry x="600" y="65" width="60" height="30" as="geometry" />
        </mxCell>
      </root>
    </mxGraphModel>
  </diagram>
</mxfile>
